<?xml version="1.0" standalone="no"?>
<!DOCTYPE svg PUBLIC "-//W3C//DTD SVG 20010904//EN"
 "http://www.w3.org/TR/2001/REC-SVG-20010904/DTD/svg10.dtd">
<svg version="1.0" xmlns="http://www.w3.org/2000/svg"
 width="1070.000000pt" height="451.000000pt" viewBox="0 0 1070.000000 451.000000"
 preserveAspectRatio="xMidYMid meet">
<metadata>
Created by potrace 1.16, written by Peter Selinger 2001-2019
</metadata>
<g transform="translate(0.000000,451.000000) scale(0.100000,-0.100000)"
fill="#000000" stroke="none">
<path d="M805 3225 c-94 -17 -155 -45 -211 -97 -93 -86 -124 -189 -124 -415
l0 -153 -130 0 -130 0 0 -165 0 -165 130 0 130 0 0 -480 0 -480 195 0 195 0 0
480 0 480 145 0 144 0 5 33 c8 50 26 234 26 267 l0 30 -161 0 -161 0 4 133 c6
204 29 227 223 227 l105 0 0 154 0 153 -77 7 c-112 9 -229 6 -308 -9z"/>
<path d="M5245 3219 c-99 -9 -183 -18 -187 -18 -5 -1 -8 -435 -8 -966 l0 -965
190 0 190 0 0 82 0 82 30 -40 c81 -111 249 -167 423 -144 44 6 98 19 121 27
52 21 133 74 168 110 44 46 97 142 126 228 25 77 26 89 27 295 0 237 -8 287
-66 404 -79 159 -198 243 -380 267 -151 21 -289 -22 -379 -117 l-50 -53 0 415
c0 325 -3 414 -12 413 -7 -1 -94 -10 -193 -20z m551 -968 c51 -23 99 -80 121
-146 25 -71 25 -296 0 -378 -40 -131 -169 -196 -311 -156 -55 15 -117 82 -139
148 -24 74 -24 316 -1 389 35 107 110 162 224 162 42 0 79 -7 106 -19z"/>
<path d="M9465 3219 c-99 -9 -183 -18 -187 -18 -5 -1 -8 -435 -8 -966 l0 -965
200 0 200 0 2 301 3 301 190 -301 190 -301 213 0 c168 0 212 3 206 13 -4 6
-97 151 -206 321 -110 171 -200 313 -201 316 -1 3 86 145 193 315 107 169 197
312 198 317 2 5 -90 7 -209 6 l-212 -3 -181 -290 -181 -289 -3 632 c-2 496 -5
632 -15 631 -6 -1 -93 -10 -192 -20z"/>
<path d="M1626 2579 c-68 -10 -170 -55 -226 -99 -55 -43 -125 -153 -154 -240
-71 -214 -57 -551 30 -723 89 -179 236 -268 444 -269 155 -1 262 43 336 140
l34 45 0 -82 0 -81 190 0 190 0 0 645 0 645 -190 0 -189 0 -3 -81 -3 -80 -36
48 c-46 61 -127 109 -215 128 -76 16 -119 17 -208 4z m327 -333 c40 -20 86
-78 106 -136 19 -53 26 -244 12 -326 -18 -104 -57 -165 -126 -199 -46 -23 -65
-27 -118 -23 -82 5 -134 32 -174 91 -44 65 -56 135 -51 296 3 120 7 142 30
192 26 58 74 103 125 119 44 14 154 6 196 -14z"/>
<path d="M3160 2580 c-304 -33 -484 -189 -535 -465 -21 -112 -16 -357 9 -450
69 -252 247 -389 539 -414 116 -10 263 1 346 25 74 21 134 53 128 67 -2 7 -21
69 -43 140 -21 70 -43 127 -49 127 -5 0 -35 -10 -65 -21 -78 -31 -238 -38
-310 -14 -69 23 -122 76 -150 151 -19 52 -21 74 -18 204 3 133 5 150 30 202
29 63 85 110 152 130 70 20 191 13 284 -17 46 -15 85 -25 86 -23 10 14 85 272
81 278 -10 15 -92 48 -160 63 -89 20 -229 28 -325 17z"/>
<path d="M4227 2579 c-268 -22 -445 -160 -513 -399 -24 -86 -30 -353 -10 -470
41 -244 182 -390 431 -446 106 -25 351 -25 484 -1 78 15 238 60 249 72 3 3
-66 267 -72 272 -1 2 -28 -6 -59 -16 -100 -35 -218 -54 -337 -55 -135 -1 -199
16 -248 67 -34 35 -62 102 -62 148 l0 29 405 0 405 0 0 139 c0 177 -20 293
-67 390 -98 205 -300 295 -606 270z m178 -280 c79 -22 135 -110 135 -213 l0
-46 -225 0 -225 0 0 33 c0 97 64 200 140 224 46 15 126 15 175 2z"/>
<path d="M6978 2580 c-209 -26 -376 -138 -454 -305 -57 -119 -68 -181 -68
-360 0 -121 4 -176 17 -225 60 -224 198 -364 414 -421 109 -29 306 -29 416 0
216 57 357 202 412 426 13 51 18 111 18 220 0 109 -5 169 -18 220 -55 223
-196 370 -408 425 -90 22 -237 32 -329 20z m217 -329 c51 -24 88 -63 117 -126
21 -46 23 -64 23 -210 0 -147 -2 -164 -24 -212 -27 -61 -83 -115 -136 -133
-20 -7 -65 -10 -100 -8 -90 6 -150 44 -190 123 -30 58 -30 59 -30 229 0 167 1
172 28 229 29 59 69 96 122 115 49 17 145 14 190 -7z"/>
<path d="M8385 2581 c-148 -19 -272 -75 -360 -165 -71 -72 -118 -155 -146
-263 -28 -104 -31 -352 -5 -458 54 -221 197 -370 413 -426 59 -15 110 -20 208
-20 214 -1 354 49 470 166 71 72 118 155 147 262 17 64 21 107 21 238 0 131
-4 174 -21 238 -58 214 -201 356 -413 411 -71 18 -235 27 -314 17z m222 -336
c102 -51 138 -150 130 -360 -5 -148 -21 -204 -70 -255 -46 -47 -101 -70 -172
-70 -120 0 -198 63 -230 186 -20 77 -20 261 0 339 32 122 111 185 230 185 45
0 74 -7 112 -25z"/>
</g>
</svg>
